<svg xmlns="http://www.w3.org/2000/svg" xmlns:xlink="http://www.w3.org/1999/xlink" viewBox="0 0 416.08 423.44"><defs><style>.cls-1{fill:none;}.cls-2{fill:#242321;}.cls-3{fill:#4a2219;}.cls-4{fill:#fa384a;}.cls-5{fill:#fff;}.cls-6{clip-path:url(#clip-path);}</style><clipPath id="clip-path"><path class="cls-1" d="M91.59,286c-.28,42.27,25.21,76.66,56.85,88.3h0c31.64,11.64,73.33,2,100.51-30.4h0l.19-.23c8.4-10.14,4.76-25.55-7.23-32.13a445.3,445.3,0,0,0-60.33-27.33,445.55,445.55,0,0,0-63.65-18.29c-13.4-2.75-26.16,6.62-26.34,19.79V286Z"/></clipPath></defs><title>5</title><g id="图层_2" data-name="图层 2"><g id="图层_1-2" data-name="图层 1"><path class="cls-2" d="M288.08,269.69h0c2.19-1.32,4.67-1.39,5.58-.14l41.64,57.61A7.18,7.18,0,0,1,333,337.59h0a7.93,7.93,0,0,1-10.85-2.51l-36.6-60.65C284.76,273.11,285.9,271,288.08,269.69Z"/><path class="cls-2" d="M344.34,372.57a5.81,5.81,0,0,0,1-2.63c.08-.46.07-.94.11-1.4s0-.94-.06-1.41a26.16,26.16,0,0,0-1.18-5.55c-.55-1.83-1.23-3.64-1.88-5.46s-1.41-3.64-2.34-5.38l-1.33-2.63c-.43-.88-1-1.72-1.44-2.58L335.71,343c-.5-.85-1-1.67-1.57-2.51-2-3.4-4.3-6.65-6.52-9.94l.19-.14c2.47,3.1,5,6.17,7.32,9.42.58.81,1.18,1.6,1.73,2.43l1.64,2.51c.54.84,1.12,1.66,1.62,2.53l1.5,2.6.77,1.3.68,1.34,1.39,2.7L345.6,358a27,27,0,0,1,.86,3,24,24,0,0,1,.52,3,13.58,13.58,0,0,1,.08,1.56,9.16,9.16,0,0,1-.05,1.57c-.15,2.05-.81,4.31-2.53,5.61Z"/><path class="cls-2" d="M303.83,225.83h0c.67-2.42,2.42-4.08,3.94-3.71l70,16.94a7.61,7.61,0,0,1,5.56,9.43h0a7.48,7.48,0,0,1-9.59,5.11l-68.48-22.52C303.8,230.59,303.16,228.24,303.83,225.83Z"/><path class="cls-2" d="M415.78,267.82a6.11,6.11,0,0,0-1.14-2.62c-.26-.4-.61-.76-.9-1.13s-.68-.69-1-1a29.14,29.14,0,0,0-4.68-3.45,80.74,80.74,0,0,0-10.52-5.52c-1.85-.78-3.69-1.56-5.6-2.2s-3.79-1.36-5.73-1.92c-3.83-1.28-7.74-2.29-11.65-3.37l.05-.23c4,.77,8,1.47,11.92,2.46,2,.44,3.94,1,5.89,1.59s3.89,1.22,5.82,1.89l1.45.5,1.43.58,2.86,1.16,2.77,1.41c.92.47,1.76,1.11,2.64,1.67a30.73,30.73,0,0,1,2.45,2,13.17,13.17,0,0,1,1.11,1.13,9.33,9.33,0,0,1,1,1.21c1.28,1.64,2.37,3.76,2,5.93Z"/><path class="cls-2" d="M326.16,185.23h0c-2.2-1.41-3.35-3.58-2.57-4.86l36.11-58.93c2.14-3.49,7-4.45,10.83-2h0c3.8,2.46,4.82,7.24,2.38,10.54l-41.18,55.65C330.84,186.84,328.35,186.65,326.16,185.23Z"/><path class="cls-2" d="M398.56,96a6.13,6.13,0,0,0-2.79.18,12.19,12.19,0,0,0-2.6,1,8.58,8.58,0,0,0-1.23.66l-1.2.72c-.75.58-1.55,1.07-2.27,1.68a72.09,72.09,0,0,0-8.41,7.84c-1.27,1.46-2.58,2.9-3.74,4.47s-2.42,3.06-3.51,4.69c-2.35,3.14-4.45,6.44-6.6,9.73l-.21-.12c1.88-3.45,3.72-6.93,5.82-10.28,1-1.7,2.13-3.31,3.25-4.94s2.33-3.21,3.54-4.78a29.87,29.87,0,0,1,1.9-2.31c.66-.75,1.27-1.54,2-2.26l2.17-2.1c.77-.66,1.6-1.25,2.41-1.86s1.75-1.06,2.63-1.58l1.42-.62.71-.3.76-.21a8.12,8.12,0,0,1,6.09.19Z"/><path class="cls-2" d="M109.87,204.12h0c-.81-2.41-2.65-4.08-4.15-3.71l-69,16.89a7.17,7.17,0,0,0-5,9.42h0a7.94,7.94,0,0,0,9.9,5.12l67.17-22.47C110.18,208.89,110.68,206.54,109.87,204.12Z"/><path class="cls-2" d="M.12,246.07c-.47-2.11.5-4.26,1.71-5.92a8.88,8.88,0,0,1,1-1.22c.36-.37.68-.81,1.07-1.14a26.16,26.16,0,0,1,2.37-2,26.44,26.44,0,0,1,2.57-1.69l2.7-1.41,2.8-1.16,1.4-.58,1.42-.49,2.84-1c.94-.34,1.91-.59,2.86-.88l2.87-.85c1-.28,1.94-.49,2.9-.73,3.87-1,7.79-1.67,11.69-2.43l.05.23c-3.83,1.07-7.66,2.07-11.41,3.34-.94.3-1.89.57-2.82.9l-2.79,1c-.92.34-1.86.64-2.76,1l-2.72,1.15c-1.83.71-3.52,1.7-5.27,2.57s-3.36,1.91-5,2.94a26.35,26.35,0,0,0-4.49,3.47c-.32.34-.67.67-1,1a13.16,13.16,0,0,0-.82,1.14,5.86,5.86,0,0,0-1,2.62Z"/><path class="cls-2" d="M126.3,160.52h0c1.06-2.28.81-4.68-.59-5.39L61.4,122.65a7.62,7.62,0,0,0-10.35,3.58h0a7.48,7.48,0,0,0,4,10.11l66.74,27.23C123.25,164.16,125.25,162.79,126.3,160.52Z"/><path class="cls-2" d="M13.63,119.82c1.15-1.87,3.35-2.77,5.39-3.2a9.61,9.61,0,0,1,1.58-.25c.52,0,1.06-.15,1.58-.14a30,30,0,0,1,3.15.09,29.06,29.06,0,0,1,3.09.43l3,.73,2.93,1,1.46.48,1.43.56c1.91.73,3.82,1.46,5.66,2.33s3.72,1.66,5.52,2.6c3.64,1.81,7.14,3.87,10.67,5.86l-.12.21c-3.67-1.71-7.3-3.48-11.05-5-1.84-.84-3.72-1.55-5.61-2.25s-3.78-1.36-5.68-2a81,81,0,0,0-11.6-2.6,29,29,0,0,0-5.8-.41c-.47,0-1,.06-1.43.12s-1,.15-1.41.28a6.29,6.29,0,0,0-2.58,1.26Z"/><path class="cls-2" d="M135.61,115.13h0c2.59.34,4.88-.56,5.11-2l10.69-68.28c.63-4.05-2.47-8-6.95-8.54h0c-4.49-.59-8.36,2.39-8.64,6.49l-4.72,69.06C131,113.32,133,114.79,135.61,115.13Z"/><path class="cls-2" d="M138.38,0a8.07,8.07,0,0,1,4.76,3.8l.44.65.34.69.69,1.39c.33,1,.71,1.93,1,2.91s.48,2,.63,3l.29,3c.07,1,0,2,0,3s0,2,0,3c-.11,2-.16,4-.41,5.93s-.39,3.94-.73,5.88c-.57,3.91-1.43,7.75-2.23,11.6l-.23,0c.48-3.9,1-7.78,1.28-11.69.22-1.94.28-3.89.36-5.84s.07-3.89.05-5.83A71.55,71.55,0,0,0,143.27,10c-.16-.94-.44-1.82-.65-2.75l-.44-1.33a8.16,8.16,0,0,0-.51-1.3,12.58,12.58,0,0,0-1.34-2.44,6.42,6.42,0,0,0-2-1.94Z"/><path class="cls-2" d="M208,423.44h-.08a.59.59,0,0,1-.51-.67c.06-.41,5.75-41.25-9.25-53.67a.6.6,0,0,1,.76-.92c15.51,12.85,9.92,53.05,9.67,54.76A.59.59,0,0,1,208,423.44Z"/><path class="cls-2" d="M71.6,373.26a.62.62,0,0,1-.32-.09.61.61,0,0,1-.18-.83c.92-1.45,22.73-35.69,42.85-35.43a.59.59,0,0,1,.59.6.6.6,0,0,1-.6.59h-.22c-19.42,0-41.39,34.53-41.61,34.88A.61.61,0,0,1,71.6,373.26Z"/><path class="cls-3" d="M103.44,275.11,247,327.92c43.51-8.82,81-38.27,97-81.65L355,216.18c25-67.86-12.27-144-83.19-170.12l-4.67-1.72C196.26,18.25,118.53,52.12,93.56,120l-11.07,30.1C66.53,193.45,76,240.19,103.44,275.11Z"/><path class="cls-4" d="M103.44,275.11,247,327.92c43.51-8.82,81-38.27,97-81.65L355,216.18c23.14-62.88-7.16-132.85-68.13-163.55L187.2,268.91,251.44,39.59C185.11,23.45,116.7,57.11,93.56,120l-11.07,30.1C66.53,193.45,76,240.19,103.44,275.11Z"/><ellipse class="cls-2" cx="277.93" cy="268.71" rx="16.74" ry="17.49" transform="translate(-70.22 436.76) rotate(-69.8)"/><ellipse class="cls-2" cx="263.59" cy="206.36" rx="16.74" ry="17.49" transform="translate(-21.1 382.49) rotate(-69.8)"/><ellipse class="cls-2" cx="160.55" cy="168.45" rx="16.74" ry="17.49" transform="translate(-52.98 260.97) rotate(-69.8)"/><ellipse class="cls-2" cx="163.76" cy="108.75" rx="16.74" ry="17.49" transform="translate(5.15 224.89) rotate(-69.8)"/><ellipse class="cls-2" cx="118.24" cy="209.96" rx="7.44" ry="7.77" transform="translate(-119.63 248.43) rotate(-69.8)"/><ellipse class="cls-2" cx="316.78" cy="141.71" rx="16.74" ry="17.49" transform="translate(74.4 390.08) rotate(-69.8)"/><ellipse class="cls-2" cx="192.31" cy="255.04" rx="26.33" ry="27.51" transform="translate(-113.45 347.46) rotate(-69.8)"/><ellipse class="cls-5" cx="217.84" cy="297.53" rx="20.39" ry="21.31" transform="translate(-136.61 399.25) rotate(-69.8)"/><ellipse class="cls-5" cx="145.32" cy="270.85" rx="20.39" ry="21.31" transform="translate(-159.05 313.71) rotate(-69.8)"/><path class="cls-2" d="M91.59,286c-.28,42.27,25.21,76.66,56.85,88.3h0c31.64,11.64,73.33,2,100.51-30.4h0l.19-.23c8.4-10.14,4.76-25.55-7.23-32.13a445.3,445.3,0,0,0-60.33-27.33,445.55,445.55,0,0,0-63.65-18.29c-13.4-2.75-26.16,6.62-26.34,19.79V286Z"/><g class="cls-6"><ellipse class="cls-5" cx="202.67" cy="376.99" rx="31.81" ry="33.24" transform="translate(-221.11 437.03) rotate(-69.8)"/><ellipse class="cls-5" cx="105.38" cy="341.2" rx="31.81" ry="33.24" transform="translate(-251.22 322.29) rotate(-69.8)"/></g><circle class="cls-5" cx="114.65" cy="345.43" r="39.39"/><circle class="cls-2" cx="122.79" cy="369.27" r="13.26"/><circle class="cls-5" cx="193.44" cy="372.65" r="39.39"/><circle class="cls-2" cx="201.27" cy="397.34" r="13.26"/></g></g></svg>